<?xml version="1.0" encoding="utf-8"?>
<!-- Generator: Adobe Illustrator 25.3.1, SVG Export Plug-In . SVG Version: 6.00 Build 0)  -->
<svg version="1.1" id="Layer_3" xmlns="http://www.w3.org/2000/svg" xmlns:xlink="http://www.w3.org/1999/xlink" x="0px" y="0px"
	 viewBox="0 0 1500 2000" style="enable-background:new 0 0 1500 2000;" xml:space="preserve">
<style type="text/css">
	.st0{clip-path:url(#SVGID_2_);}
	.st1{fill:#E5A975;}
	.st2{fill:#F1C8C6;}
	.st3{fill:#575757;}
	.st4{fill:#A09F9F;}
	.st5{fill:#FFFFFF;}
	.st6{fill:#323870;}
	.st7{fill:#231F20;}
	.st8{fill:#1B1C1C;}
	.st9{fill:#91C858;}
	.st10{fill:#F3BB2C;}
	.st11{fill:#DD1F26;}
	.st12{fill:#EFC796;}
	.st13{fill:#5257A5;}
	.st14{fill:none;}
	.st15{fill:#4F2D17;}
</style>
<g>
	<defs>
		<rect id="SVGID_1_" width="1500" height="2000"/>
	</defs>
	<clipPath id="SVGID_2_">
		<use xlink:href="#SVGID_1_"  style="overflow:visible;"/>
	</clipPath>
	<g class="st0">
		<g>
			<g>
				<g>
					<rect x="-53.8" y="1429.36" class="st1" width="1612.8" height="656.64"/>
				</g>
			</g>
			<g>
				<g>
					<path d="M1560,2087H-54.8v-658.64H1560V2087z M-52.8,2085H1558v-654.64H-52.8V2085z"/>
				</g>
			</g>
		</g>
		<g>
			<g>
				<g>
					<rect x="-53.8" y="-54.36" class="st2" width="1612.8" height="1487.25"/>
				</g>
			</g>
			<g>
				<g>
					<path d="M1560,1433.89H-54.8V-55.36H1560V1433.89z M-52.8,1431.89H1558V-53.36H-52.8V1431.89z"/>
				</g>
			</g>
		</g>
		<g>
			<g>
				<g>
					<path class="st3" d="M961.9,184.49l-34.25-34.25c-0.26-0.26-0.51-0.52-0.78-0.78l-0.2-0.2c0,0-0.01,0.01-0.01,0.01
						c-6.14-5.78-14.7-8.98-23.84-7.92L322.99,208.6c-15.01,1.74-26.33,14.45-26.33,29.56v1351.99c0,8.07,3.18,15.29,8.29,20.6
						l0,0.01l34.4,34.4l24.46-13.8l-3.89-16.39l551.01-87.49c14.45-2.3,25.1-14.76,25.1-29.39V188.51L961.9,184.49z"/>
				</g>
			</g>
			<g>
				<g>
					<path d="M339.17,1646.4l-35.14-35.15c-5.41-5.72-8.38-13.21-8.38-21.1V238.16c0-15.62,11.7-28.76,27.22-30.56l579.83-67.25
						c8.72-1.01,17.4,1.74,23.95,7.55l0.04-0.03l0.88,0.88c0.26,0.25,0.53,0.52,0.79,0.79L964,185.17l-26.98,4.19v1308.72
						c0,15.22-10.91,28-25.94,30.38l-549.94,87.32l3.81,16.07L339.17,1646.4z M305.76,1610.17l33.75,33.75l23.14-13.05l-3.97-16.71
						l1.07-0.17l551.01-87.49c14.05-2.23,24.25-14.18,24.25-28.41V187.65l24.78-3.85l-32.86-32.86c-0.24-0.25-0.47-0.48-0.7-0.71
						l-0.26-0.24c-6.2-5.84-14.6-8.63-23.04-7.65L323.1,209.59c-14.51,1.68-25.45,13.97-25.45,28.57v1351.99
						c0,7.46,2.84,14.54,8.01,19.91L305.76,1610.17z"/>
				</g>
			</g>
		</g>
		<g>
			<g>
				<g>
					<path class="st4" d="M330.68,272.19v1351.99c0,18.3,16.36,32.26,34.43,29.39l579.83-92.07c14.45-2.3,25.1-14.76,25.1-29.39
						V204.93c0-17.8-15.51-31.62-33.19-29.56l-579.83,67.26C342,244.37,330.68,257.08,330.68,272.19z"/>
				</g>
			</g>
			<g>
				<g>
					<path d="M360.43,1654.94c-7.27,0-14.35-2.58-19.96-7.37c-6.86-5.85-10.79-14.38-10.79-23.4V272.19
						c0-15.62,11.7-28.76,27.22-30.56l579.83-67.26c8.7-1.01,17.46,1.75,24.01,7.59c6.55,5.83,10.3,14.2,10.3,22.97v1327.18
						c0,15.22-10.91,28-25.94,30.38l-579.83,92.07C363.65,1654.82,362.04,1654.94,360.43,1654.94z M940.27,176.17
						c-1.1,0-2.2,0.06-3.31,0.19l-579.83,67.26c-14.51,1.68-25.45,13.97-25.45,28.57v1351.99c0,8.43,3.68,16.4,10.09,21.88
						c6.41,5.47,14.86,7.85,23.19,6.53l579.83-92.07c14.05-2.23,24.25-14.18,24.25-28.41V204.94c0-8.2-3.51-16.03-9.63-21.48
						C954.12,178.74,947.29,176.17,940.27,176.17z"/>
				</g>
			</g>
		</g>
		<g>
			<g>
				<g>
					<path class="st3" d="M363.8,1595.93V285.11c0-6.88,5.16-12.67,11.99-13.46l536.42-62.22l9.59-1.11l0,0
						c8.05-0.94,15.12,5.36,15.12,13.46v1287.45c0,6.66-4.85,12.34-11.43,13.39l-546.01,86.7
						C371.25,1610.62,363.8,1604.26,363.8,1595.93z"/>
				</g>
			</g>
			<g>
				<g>
					<path d="M377.35,1610.48c-3.44,0-6.79-1.22-9.44-3.49c-3.24-2.77-5.1-6.8-5.1-11.07V285.11c0-7.39,5.54-13.6,12.88-14.46
						l536.42-62.22l9.59-1.11c4.13-0.48,8.26,0.83,11.36,3.59c3.1,2.76,4.88,6.72,4.88,10.87v1287.45c0,7.2-5.16,13.24-12.27,14.37
						l-546.01,86.7C378.87,1610.42,378.11,1610.48,377.35,1610.48z M923.36,209.23c-0.48,0-0.96,0.03-1.45,0.08l-9.59,1.11
						l-536.42,62.22c-6.33,0.73-11.11,6.1-11.11,12.47v1310.81c0,3.68,1.6,7.16,4.4,9.55c2.8,2.39,6.49,3.43,10.12,2.85l546.01-86.7
						c6.13-0.97,10.58-6.19,10.58-12.4V221.78c0-3.58-1.53-7-4.21-9.38C929.41,210.35,926.42,209.23,923.36,209.23z"/>
				</g>
			</g>
		</g>
		<g>
			<g>
				<g>
					<path class="st5" d="M912.21,224.65v1288.5c0,6.66-4.85,12.34-11.43,13.39l-521.3,82.78c-8.23,1.31-15.68-5.05-15.68-13.39
						V285.11c0-6.88,5.16-12.67,11.99-13.46l521.3-60.47C905.15,210.25,912.21,216.54,912.21,224.65z"/>
				</g>
			</g>
			<g>
				<g>
					<path d="M377.35,1610.48c-3.44,0-6.79-1.22-9.44-3.49c-3.24-2.77-5.1-6.8-5.1-11.07V285.11c0-7.39,5.54-13.6,12.88-14.46
						l521.3-60.47c4.12-0.48,8.26,0.83,11.36,3.59c3.1,2.76,4.87,6.72,4.87,10.87v1288.5c0,7.2-5.16,13.24-12.27,14.37l-521.3,82.78
						C378.87,1610.42,378.11,1610.48,377.35,1610.48z M898.65,212.09c-0.48,0-0.96,0.03-1.44,0.08l-521.3,60.47
						c-6.33,0.73-11.11,6.1-11.11,12.47v1310.81c0,3.68,1.6,7.16,4.4,9.55c2.8,2.39,6.49,3.43,10.12,2.85l521.3-82.78
						c6.13-0.97,10.58-6.19,10.58-12.4V224.65c0-3.58-1.53-6.99-4.2-9.37C904.7,213.22,901.72,212.09,898.65,212.09z"/>
				</g>
			</g>
		</g>
		<g>
			<g>
				<g>
					<path class="st6" d="M921.8,217.97v731.59l-9.59,1.52l-548.41,87.08V284.69c0-6.64,4.98-12.23,11.58-13l536.83-62.27l0,0
						C917.32,208.84,921.8,212.83,921.8,217.97z"/>
				</g>
			</g>
			<g>
				<g>
					<path d="M362.8,1039.33V284.69c0-7.15,5.36-13.17,12.46-13.99l536.83-62.27c2.72-0.32,5.45,0.55,7.49,2.37
						c2.04,1.82,3.21,4.43,3.21,7.17v732.44l-10.43,1.65L362.8,1039.33z M913.2,210.37c-0.29,0-0.58,0.02-0.87,0.05l-536.83,62.27
						c-6.1,0.71-10.69,5.87-10.69,12v752.3l547.25-86.9l8.75-1.39V217.97c0-2.17-0.93-4.23-2.54-5.68
						C916.86,211.05,915.05,210.37,913.2,210.37z"/>
				</g>
			</g>
		</g>
		<g>
			<g>
				<path d="M557.07,312.67l203.28-25.99c7.37-0.94,12.89-7.21,12.89-14.64v0c0-8.89-7.81-15.77-16.63-14.64l-203.28,25.99
					c-7.37,0.94-12.89,7.21-12.89,14.64v0C540.44,306.93,548.25,313.8,557.07,312.67z"/>
			</g>
			<g>
				<path class="st7" d="M555.2,313.29c-3.69,0-7.28-1.34-10.08-3.81c-3.29-2.9-5.18-7.07-5.18-11.45c0-7.66,5.73-14.17,13.32-15.14
					l203.28-25.99c4.35-0.56,8.73,0.79,12.02,3.68s5.18,7.07,5.18,11.45c0,7.66-5.73,14.17-13.33,15.14l-203.28,25.99l-0.06-0.5
					l0.06,0.5C556.49,313.25,555.84,313.29,555.2,313.29z M758.48,257.79c-0.6,0-1.2,0.04-1.81,0.12l-203.28,25.99
					c-7.1,0.91-12.45,6.99-12.45,14.14c0,4.1,1.76,8,4.84,10.7c3.07,2.71,7.17,3.96,11.23,3.44l203.28-25.99
					c7.1-0.91,12.45-6.99,12.45-14.14c0-4.1-1.76-8-4.84-10.7C765.29,259.04,761.93,257.79,758.48,257.79z"/>
			</g>
		</g>
		<g>
			<g>
				<g>
					<polygon class="st8" points="363.8,1047.52 928.46,957.86 928.46,941.46 363.8,1031.12 					"/>
				</g>
			</g>
			<g>
				<g>
					<path d="M362.8,1048.69v-18.42l0.84-0.13l565.82-89.84v18.43L362.8,1048.69z M364.8,1031.97v14.38l562.66-89.34v-14.38
						L364.8,1031.97z"/>
				</g>
			</g>
		</g>
		<g>
			<g>
				<path class="st9" d="M536.84,1072.82v154.94c0,6.78-4.93,12.56-11.63,13.62l-116.18,18.45c-8.37,1.33-15.96-5.14-15.96-13.62
					v-154.94c0-6.78,4.93-12.56,11.63-13.62l116.18-18.45C529.26,1057.87,536.84,1064.35,536.84,1072.82z"/>
			</g>
			<g>
				<path d="M406.86,1261.01c-3.49,0-6.9-1.24-9.6-3.54c-3.3-2.81-5.19-6.92-5.19-11.25v-154.94c0-7.32,5.25-13.46,12.47-14.61
					l116.18-18.45c4.28-0.68,8.63,0.54,11.92,3.36c3.3,2.81,5.19,6.92,5.19,11.25v154.94c0,7.32-5.25,13.46-12.47,14.61
					l-116.18,18.45C408.42,1260.95,407.64,1261.01,406.86,1261.01z M523.05,1060.03c-0.67,0-1.34,0.05-2.01,0.16l-116.18,18.45
					c-6.25,0.99-10.79,6.31-10.79,12.63v154.94c0,3.75,1.64,7.29,4.49,9.73c2.85,2.43,6.61,3.49,10.31,2.91l116.18-18.45
					c6.25-0.99,10.79-6.31,10.79-12.63v-154.94c0-3.75-1.64-7.29-4.49-9.73C529.02,1061.1,526.08,1060.03,523.05,1060.03z"/>
			</g>
		</g>
		<g>
			<g>
				<path class="st10" d="M709.89,1045.35v154.94c0,6.78-4.93,12.56-11.63,13.62l-116.19,18.44c-8.37,1.33-15.95-5.14-15.95-13.62
					V1063.8c0-6.78,4.93-12.56,11.63-13.62l116.19-18.44C702.31,1030.4,709.89,1036.87,709.89,1045.35z"/>
			</g>
			<g>
				<path d="M579.9,1233.53c-3.5,0-6.9-1.24-9.6-3.54c-3.3-2.81-5.19-6.91-5.19-11.25v-154.94c0-7.32,5.25-13.46,12.47-14.61
					l116.19-18.44c4.28-0.68,8.63,0.54,11.92,3.36c3.3,2.81,5.19,6.92,5.19,11.25v154.94c0,7.32-5.25,13.46-12.47,14.61
					l-116.19,18.44C581.46,1233.47,580.68,1233.53,579.9,1233.53z M696.1,1032.56c-0.67,0-1.34,0.05-2.01,0.16l-116.19,18.44
					c-6.25,0.99-10.79,6.31-10.79,12.63v154.94c0,3.75,1.63,7.29,4.49,9.73c2.85,2.43,6.61,3.49,10.31,2.91l116.19-18.44
					c6.25-0.99,10.79-6.31,10.79-12.63v-154.94c0-3.75-1.63-7.29-4.49-9.73C702.07,1033.63,699.13,1032.56,696.1,1032.56z"/>
			</g>
		</g>
		<g>
			<g>
				<path class="st9" d="M882.93,1017.87v154.94c0,6.78-4.93,12.56-11.63,13.62l-116.18,18.45c-8.37,1.33-15.96-5.14-15.96-13.62
					v-154.94c0-6.78,4.93-12.56,11.63-13.62l116.18-18.45C875.35,1002.92,882.93,1009.4,882.93,1017.87z"/>
			</g>
			<g>
				<path d="M752.95,1206.06c-3.49,0-6.9-1.24-9.6-3.54c-3.3-2.81-5.19-6.92-5.19-11.25v-154.94c0-7.32,5.25-13.46,12.47-14.61
					l116.18-18.45c4.29-0.68,8.63,0.54,11.92,3.36s5.19,6.92,5.19,11.25v154.94c0,7.32-5.25,13.46-12.47,14.61l-116.18,18.45
					C754.51,1206,753.73,1206.06,752.95,1206.06z M869.14,1005.08c-0.67,0-1.34,0.05-2.01,0.16l-116.18,18.45
					c-6.25,0.99-10.79,6.31-10.79,12.63v154.94c0,3.75,1.64,7.29,4.49,9.73c2.85,2.43,6.61,3.49,10.31,2.91l116.18-18.45
					c6.25-0.99,10.79-6.31,10.79-12.63v-154.94c0-3.75-1.63-7.29-4.49-9.73C875.11,1006.15,872.17,1005.08,869.14,1005.08z"/>
			</g>
		</g>
		<g>
			<g>
				<path class="st10" d="M536.84,1328.05V1483c0,6.78-4.93,12.56-11.63,13.62l-116.18,18.45c-8.37,1.33-15.96-5.14-15.96-13.62
					V1346.5c0-6.78,4.93-12.56,11.63-13.62l116.18-18.45C529.26,1313.1,536.84,1319.58,536.84,1328.05z"/>
			</g>
			<g>
				<path d="M406.86,1516.24c-3.5,0-6.9-1.24-9.6-3.54c-3.3-2.81-5.19-6.92-5.19-11.25V1346.5c0-7.32,5.25-13.46,12.47-14.61
					l116.18-18.45c4.28-0.68,8.63,0.54,11.92,3.36s5.19,6.92,5.19,11.25V1483c0,7.32-5.25,13.46-12.47,14.61l-116.18,18.45
					C408.42,1516.18,407.64,1516.24,406.86,1516.24z M523.05,1315.26c-0.67,0-1.34,0.05-2.01,0.16l-116.18,18.45
					c-6.25,0.99-10.79,6.31-10.79,12.63v154.94c0,3.75,1.64,7.29,4.49,9.73c2.85,2.43,6.61,3.49,10.31,2.91l116.18-18.45
					c6.25-0.99,10.79-6.31,10.79-12.63v-154.94c0-3.75-1.64-7.29-4.49-9.73C529.02,1316.33,526.08,1315.26,523.05,1315.26z"/>
			</g>
		</g>
		<g>
			<g>
				<path class="st9" d="M709.89,1300.58v154.94c0,6.78-4.93,12.56-11.63,13.62l-116.19,18.44c-8.37,1.33-15.95-5.14-15.95-13.62
					v-154.94c0-6.78,4.93-12.56,11.63-13.62l116.19-18.44C702.31,1285.63,709.89,1292.1,709.89,1300.58z"/>
			</g>
			<g>
				<path d="M579.9,1488.76c-3.5,0-6.9-1.24-9.6-3.54c-3.3-2.81-5.19-6.92-5.19-11.25v-154.94c0-7.32,5.25-13.46,12.47-14.61
					l116.19-18.44c4.28-0.68,8.63,0.54,11.92,3.36s5.19,6.92,5.19,11.25v154.94c0,7.32-5.25,13.46-12.47,14.61l-116.19,18.44
					C581.46,1488.7,580.68,1488.76,579.9,1488.76z M696.1,1287.79c-0.67,0-1.34,0.05-2.01,0.16l-116.19,18.44
					c-6.25,0.99-10.79,6.3-10.79,12.63v154.94c0,3.75,1.64,7.29,4.49,9.73c2.85,2.43,6.61,3.49,10.31,2.91l116.19-18.44
					c6.25-0.99,10.79-6.31,10.79-12.63v-154.94c0-3.75-1.64-7.29-4.49-9.73C702.07,1288.86,699.13,1287.79,696.1,1287.79z"/>
			</g>
		</g>
		<g>
			<g>
				<path class="st10" d="M882.93,1273.1v154.94c0,6.78-4.93,12.56-11.63,13.62l-116.18,18.45c-8.37,1.33-15.96-5.14-15.96-13.62
					v-154.94c0-6.78,4.93-12.56,11.63-13.62l116.18-18.45C875.35,1258.15,882.93,1264.63,882.93,1273.1z"/>
			</g>
			<g>
				<path d="M752.95,1461.29c-3.49,0-6.9-1.24-9.6-3.54c-3.3-2.81-5.19-6.92-5.19-11.25v-154.94c0-7.32,5.25-13.46,12.47-14.61
					l116.18-18.45c4.29-0.68,8.63,0.54,11.92,3.36s5.19,6.92,5.19,11.25v154.94c0,7.32-5.25,13.46-12.47,14.61l-116.18,18.45
					C754.51,1461.23,753.73,1461.29,752.95,1461.29z M869.14,1260.31c-0.67,0-1.34,0.05-2.01,0.16l-116.18,18.45
					c-6.25,0.99-10.79,6.31-10.79,12.63v154.94c0,3.75,1.64,7.29,4.49,9.73c2.85,2.43,6.61,3.49,10.31,2.91l116.18-18.45
					c6.25-0.99,10.79-6.31,10.79-12.63V1273.1c0-3.75-1.63-7.29-4.49-9.73C875.11,1261.38,872.17,1260.31,869.14,1260.31z"/>
			</g>
		</g>
		<g>
			<g>
				<rect x="647.36" y="1002.02" width="6" height="239.06"/>
			</g>
		</g>
		<g>
			<g>
				<circle cx="650" cy="1249.72" r="8.64"/>
			</g>
		</g>
	</g>
	<g class="st0">
		<g>
			<g>
				<g>
					<g>
						<path class="st11" d="M1056.44,1075.84l105.12,103.68c0,0,46.08,0.68,34.56,25.54c-11.52,24.86-19.44,34.22-19.44,34.22
							l28.08,120.52c0,0,57.6-72.32,72.72-154.74C1292.6,1122.64,1194.68,1056.4,1056.44,1075.84z"/>
					</g>
				</g>
			</g>
			<g>
				<g>
					<g>
						<path d="M1204.25,1362.04l-28.66-123.02l0.32-0.38c0.08-0.09,7.99-9.59,19.3-34c2.28-4.91,2.33-9.15,0.15-12.61
							c-6.9-10.99-33.55-11.5-33.82-11.51l-0.4-0.01l-106.85-105.38l2-0.28c41.62-5.85,82.02-4.12,116.84,5.01
							c32.93,8.63,60.31,23.6,79.2,43.29c22.62,23.58,31.66,51.97,26.13,82.1c-14.99,81.72-72.34,154.46-72.92,155.18
							L1204.25,1362.04z M1177.76,1239.53l27.49,117.99c8.57-11.26,57.59-78.23,71.24-152.64c5.41-29.47-3.45-57.25-25.61-80.35
							c-38.78-40.44-112.33-58.75-192.3-47.97l103.39,101.97c3.59,0.1,28.01,1.19,35.08,12.44c2.56,4.07,2.55,8.95-0.03,14.52
							C1186.73,1227.69,1179.38,1237.5,1177.76,1239.53z"/>
					</g>
				</g>
			</g>
		</g>
		<g>
			<g>
				<g>
					<g>
						<path class="st12" d="M645.86,1116.34c0,0-7.38-6.3,2.52-13.5c9.9-7.2,30.96,4.86,39.96,11.88s14.82,18.96,14.82,18.96H682.4
							L645.86,1116.34z"/>
					</g>
				</g>
			</g>
			<g>
				<g>
					<g>
						<path d="M704.76,1134.68h-22.59l-36.96-17.58c-0.13-0.11-3.14-2.73-2.99-6.66c0.12-2.98,1.99-5.8,5.57-8.41
							c11-8,33.44,5.88,41.16,11.9c9.08,7.08,14.86,18.81,15.1,19.31L704.76,1134.68z M682.62,1132.68h18.88
							c-1.84-3.35-6.89-11.8-13.78-17.17c-10.27-8.01-29.88-18.32-38.76-11.86c-3.06,2.23-4.66,4.54-4.75,6.87
							c-0.1,2.65,1.77,4.58,2.2,4.98L682.62,1132.68z"/>
					</g>
				</g>
			</g>
		</g>
		<g>
			<g>
				<g>
					<g>
						<path class="st8" d="M1120.17,1813.16l-51.1,9.33c0,0-5.25,29.61,11.9,35.82c17.15,6.22,102.33,15.63,112.84-2.02
							c10.51-17.65,9.76-47.48,9.76-47.48L1120.17,1813.16z"/>
					</g>
				</g>
			</g>
			<g>
				<g>
					<g>
						<path d="M1150.29,1867.42c-27.98,0-60.22-4.75-69.67-8.17c-17.74-6.43-12.77-35.7-12.54-36.94l0.12-0.68l0.68-0.12l51.23-9.35
							l84.43-4.4l0.03,1.03c0.03,1.23,0.63,30.32-9.9,48.02C1189.94,1864.74,1171.32,1867.42,1150.29,1867.42z M1069.95,1823.35
							c-0.63,4.4-3.4,28.68,11.36,34.03c18.72,6.79,101.77,14.99,111.64-1.59c9.15-15.37,9.64-40.54,9.63-45.91l-82.3,4.29
							L1069.95,1823.35z"/>
					</g>
				</g>
			</g>
		</g>
		<g>
			<g>
				<g>
					<g>
						<path class="st8" d="M1024.32,1822.79l-49.44,6.4c-4.54,0.59-8.08,4.23-8.51,8.79c-0.95,10.08-0.46,26.9,12.23,32.26
							c18.52,7.82,111.73,23.06,124.31,4.23c12.58-18.83,13.46-51.7,13.46-51.7L1024.32,1822.79z"/>
					</g>
				</g>
			</g>
			<g>
				<g>
					<g>
						<path d="M1066.38,1884.48c-32.94,0-76.62-8.43-88.18-13.31c-13.36-5.64-13.78-23.27-12.83-33.28
							c0.48-5.05,4.33-9.04,9.38-9.69l49.57-6.41l93.07-0.01l-0.03,1.03c-0.04,1.35-1.04,33.37-13.63,52.22
							C1099.1,1881.97,1084.33,1884.48,1066.38,1884.48z M1024.39,1823.79l-49.38,6.39c-4.11,0.53-7.26,3.78-7.65,7.9
							c-0.89,9.46-0.57,26.1,11.62,31.25c9.14,3.86,37.07,9.62,64.08,12.04c32.4,2.9,53.91,0.19,59-7.44
							c11.03-16.52,12.96-44.45,13.25-50.14L1024.39,1823.79z"/>
					</g>
				</g>
			</g>
		</g>
		<g>
			<g>
				<g>
					<g>
						<path class="st13" d="M1124.44,1391.34c0,0-8.59,375.04-11.47,421.12c0,0,82.8,15.12,95.04,0s31.31-263.12,6.83-463.28
							l-43.51,23.04l-10.36,5.84L1124.44,1391.34z"/>
					</g>
				</g>
			</g>
			<g>
				<g>
					<g>
						<path d="M1177.59,1820.17c-27.48,0-62.57-6.32-64.8-6.73l-0.87-0.16l0.06-0.89c2.85-45.53,11.39-417.33,11.47-421.08
							l0.02-0.68l37.09-13.49l10.29-5.8l44.82-23.73l0.18,1.44c14.3,116.93,12.63,238.89,10.36,301.19
							c-3.07,84.37-10.56,154.38-17.41,162.84C1204.48,1818.41,1192.09,1820.17,1177.59,1820.17z M1114.02,1811.63
							c8.87,1.55,82.14,13.88,93.21,0.2c11.91-14.71,30.84-262.5,6.79-461.08l-42.22,22.36l-10.49,5.89l-35.88,13.05
							C1125.01,1410.02,1116.86,1763.34,1114.02,1811.63z"/>
					</g>
				</g>
			</g>
		</g>
		<g>
			<g>
				<g>
					<g>
						<path class="st13" d="M1036.41,1403.52c0,0-8.59,375.04-11.47,421.12c0,0,82.8,15.12,95.04,0s26.44-193.85,26.85-431.92
							l-14.85-6.32l-59.04,3.84L1036.41,1403.52z"/>
					</g>
				</g>
			</g>
			<g>
				<g>
					<g>
						<path d="M1089.56,1832.35c-27.48,0-62.57-6.32-64.8-6.73l-0.87-0.16l0.06-0.89c2.85-45.53,11.39-417.33,11.47-421.08
							l0.02-0.68l37.45-13.57l59.28-3.86l15.68,6.67l0,0.66c-0.4,235.7-14.59,417.13-27.07,432.55
							C1116.44,1830.59,1104.06,1832.35,1089.56,1832.35z M1025.99,1823.81c8.87,1.55,82.14,13.88,93.21,0.2
							c12.26-15.14,26.2-195.67,26.63-430.63l-14.02-5.97l-58.66,3.81l-35.75,13C1036.98,1422.21,1028.83,1775.52,1025.99,1823.81z"
							/>
					</g>
				</g>
			</g>
		</g>
		<g>
			<g>
				<g>
					<g>
						<path class="st12" d="M703.16,1133.68c0,0-18.6-14.46-38.94-17.16c-20.34-2.7-37.44-5.22-40.68,0
							c-3.24,5.22-3.78,21.24,11.52,23.4c0,0-11.52,7.92-7.2,18.18s16.56,9.9,16.56,9.9s-10.08,12.6,1.98,19.8
							c0,0-8.46,16.38,8.1,20.16c16.56,3.78,42.42-16.44,42.42-16.44l8.16-50.4L703.16,1133.68z"/>
					</g>
				</g>
			</g>
			<g>
				<g>
					<g>
						<path d="M658.95,1209.43c-1.61,0-3.17-0.16-4.67-0.5c-4.97-1.13-8.31-3.48-9.94-6.98c-2.46-5.29-0.19-11.54,0.78-13.78
							c-3.07-2.04-4.91-4.64-5.47-7.74c-0.85-4.68,1.47-9.24,2.92-11.54c-3.76-0.37-12.15-2.14-15.64-10.42
							c-3.49-8.29,2.65-15.15,5.83-17.99c-6.06-1.5-9.01-5.23-10.42-8.25c-2.62-5.6-1.88-12.66,0.35-16.25
							c3.45-5.55,18.43-3.56,39.17-0.8l2.49,0.33c20.37,2.7,39.23,17.22,39.42,17.36l0.27,0.21l2.06,7.97l-0.03,0.21l-8.22,50.79
							l-0.31,0.24C696.56,1193.07,675.43,1209.43,658.95,1209.43z M646.54,1166.94l-1.34,1.68c-0.05,0.06-4.6,5.85-3.58,11.47
							c0.5,2.75,2.28,5.05,5.29,6.85l0.81,0.48l-0.43,0.84c-0.04,0.07-3.71,7.33-1.13,12.86c1.35,2.9,4.23,4.88,8.56,5.87
							c14.97,3.42,38.32-13.79,41.27-16.02l8.06-49.8l-1.78-6.9c-2.35-1.75-19.67-14.3-38.19-16.76l-2.49-0.33
							c-17.71-2.36-34.44-4.59-37.2-0.13c-1.6,2.57-2.78,8.91-0.23,14.35c1.99,4.25,5.7,6.78,11.04,7.53l2.54,0.36l-2.11,1.46
							c-0.44,0.31-10.79,7.59-6.85,16.97c4,9.49,15.14,9.31,15.61,9.29L646.54,1166.94z"/>
					</g>
				</g>
			</g>
		</g>
		<g>
			<g>
				<g>
					<g>
						<path class="st12" d="M1041.32,1083.04l-5.04-22.04l-117.36-41.68c0,0,8.64,43.2,19.44,63.72s24.73,31.61,41.76,25.56
							s16.2-7.56,16.2-7.56l8.28,3.53L1041.32,1083.04z"/>
					</g>
				</g>
			</g>
			<g>
				<g>
					<g>
						<path d="M971.13,1111.22c-12.52,0-24.02-9.41-33.66-27.72c-10.74-20.41-19.45-63.56-19.54-63.99l-0.35-1.73l119.54,42.45
							l5.33,23.29l-37.79,22.16l-7.97-3.4c-1.1,1.04-4.55,3.1-16.24,7.25C977.3,1110.67,974.18,1111.22,971.13,1111.22z
							 M920.26,1020.86c1.74,8.25,9.6,43.88,18.99,61.72c11.62,22.08,25.26,30.51,40.54,25.08c11.51-4.09,14.57-6.01,15.37-6.67
							l-1.1-2.01l10.48,4.47l35.65-20.91l-4.75-20.79L920.26,1020.86z"/>
					</g>
				</g>
			</g>
		</g>
		<g>
			<g>
				<g>
					<g>
						<path class="st11" d="M970.04,1125.73c0,0,41.04-43.41,86.4-49.89c45.36-6.48,95.65,39.06,120.64,105.52
							c26.47,70.39,46.88,166.92,46.88,178.44s-136.23,63.99-186.24,57.35c-38.16-5.07-23.04-119.19-54-163.65
							C952.76,1209.04,970.04,1125.73,970.04,1125.73z"/>
					</g>
				</g>
			</g>
			<g>
				<g>
					<g>
						<path d="M1047.28,1418.71c-3.57,0-6.8-0.19-9.69-0.57c-21.77-2.89-26.75-39.67-32.02-78.61
							c-4.37-32.29-8.89-65.69-22.67-85.46c-30.85-44.3-14.01-127.7-13.84-128.54l0.06-0.28l0.2-0.21
							c0.41-0.44,41.8-43.74,86.99-50.2c44.99-6.43,96.17,38.22,121.72,106.16c26.97,71.73,46.94,167.51,46.94,178.79
							c0,1.2-0.85,2.51-2.67,4.1c-9.28,8.13-44.45,23.37-81.81,35.46C1101.76,1411.89,1068.67,1418.71,1047.28,1418.71z
							 M970.96,1126.21c-1.05,5.34-15.89,84.4,13.58,126.71c14.05,20.17,18.6,53.81,23.01,86.34c5.17,38.16,10.05,74.2,30.3,76.89
							c19.93,2.64,57.12-4.17,102.01-18.7c37.14-12.02,72.01-27.09,81.11-35.07c1.84-1.61,1.99-2.39,1.99-2.6
							c0-11.2-19.92-106.55-46.81-178.09c-25.22-67.07-75.52-111.18-119.57-104.88C1013.68,1082.96,974.1,1122.98,970.96,1126.21z"
							/>
					</g>
				</g>
			</g>
		</g>
		<g>
			<g>
				<g>
					<g>
						<path class="st12" d="M925.04,1038.16c0,0-5.89-2.1-9.36,2.76s-0.36,24.12,3.24,29.88c3.6,5.76,15.3,4.5,15.48,0.72
							L925.04,1038.16z"/>
					</g>
				</g>
			</g>
			<g>
				<g>
					<g>
						<path d="M927.67,1075.74c-3.76,0-7.72-1.4-9.6-4.41c-3.81-6.09-7-25.68-3.21-30.99c3.09-4.33,8.23-3.94,10.51-3.12l0.49,0.17
							l9.54,34.01l-0.01,0.16c-0.08,1.7-1.62,3.06-4.23,3.74C930.08,1075.6,928.88,1075.74,927.67,1075.74z M922.07,1038.7
							c-1.73,0-3.96,0.53-5.58,2.8c-3,4.2-0.36,22.95,3.27,28.77c1.98,3.16,7.19,4.07,10.9,3.11c1.53-0.4,2.57-1.09,2.72-1.78
							l-9.16-32.64C923.76,1038.85,922.99,1038.7,922.07,1038.7z"/>
					</g>
				</g>
			</g>
		</g>
		<g>
			<g>
				<g>
					<g>
						<path class="st15" d="M918.92,1019.32c0,0-11.28,14.04-27.6-1.08s-6.24-36.24,8.88-35.28c0,0-14.64-29.04,9.84-46.08
							c24.48-17.04,34.8,14.4,34.8,14.4s15.12-24.24,58.32-20.88c43.2,3.36,50.04,68.04,47.88,88.92
							c-2.16,20.88-2.16,20.88-2.16,20.88s-4.32,25.16-18.72,34.54s-36.62,22.7-64.93,3.98S923.96,1042.36,918.92,1019.32z"/>
					</g>
				</g>
			</g>
			<g>
				<g>
					<g>
						<path d="M994,1089.13c-8.84,0-18.69-2.55-29.32-9.58c-26.84-17.75-40.8-35.25-46.32-58.21c-1.87,1.73-5.62,4.48-10.82,4.87
							c-5.59,0.42-11.27-2.02-16.89-7.23c-9.65-8.94-9.97-19.41-7.04-26.23c2.78-6.47,8.57-10.58,15.06-10.81
							c-2.58-6.23-10.9-30.76,10.82-45.88c7.06-4.91,13.69-6.38,19.72-4.37c9.22,3.08,14.24,13.36,15.94,17.52
							c4.3-5.35,21.23-22.67,58.11-19.81c11.55,0.9,21.41,6.16,29.31,15.63c18.27,21.91,21.02,59.58,19.49,74.39l-2.16,20.88
							c-0.19,1.11-4.57,25.77-19.17,35.28C1022.56,1080.89,1009.89,1089.13,994,1089.13z M919.45,1017.08l0.45,2.03
							c5.17,23.62,18.46,40.64,45.89,58.78c26.43,17.48,46.8,7.11,63.83-3.98c13.86-9.03,18.24-33.62,18.28-33.87l2.15-20.81
							c1.44-13.96-1.34-51.69-19.03-72.9c-7.54-9.04-16.94-14.06-27.93-14.92c-42.11-3.27-57.25,20.17-57.39,20.41l-1.13,1.81
							l-0.67-2.03c-0.05-0.15-4.89-14.52-15.34-18.01c-5.39-1.8-11.42-0.42-17.93,4.12c-23.47,16.34-10.1,43.65-9.52,44.81
							l0.78,1.56l-1.74-0.11c-6.27-0.39-12.04,3.36-14.7,9.58c-2.66,6.19-2.33,15.73,6.57,23.97c5.19,4.81,10.35,7.07,15.36,6.71
							c6.62-0.47,10.74-5.47,10.78-5.52L919.45,1017.08z"/>
					</g>
				</g>
			</g>
		</g>
		<g>
			<g>
				<g>
					<g>
						<path class="st11" d="M703.16,1133.68c0,0-22.66,59.02,6.73,74.75s134.51,24.73,164.03,27.25
							c29.52,2.52,107.64,23.04,122.76,16.56s31.68-29.16,25.92-82.8c-5.76-53.64-67.68-44.64-85.68-40.68s-75.6,18.72-114.12,19.44
							C784.28,1148.92,703.16,1133.68,703.16,1133.68z"/>
					</g>
				</g>
			</g>
			<g>
				<g>
					<g>
						<path d="M987.3,1254.5c-15.01,0-41.28-5.06-66.87-10c-18.41-3.55-35.79-6.9-46.59-7.82c-89.44-7.63-144.75-16.84-164.42-27.36
							c-29.83-15.96-8.13-73.55-7.19-75.99l0.3-0.78l0.82,0.15c0.79,0.15,77.79,14.53,116.75,14.53c0.92,0,1.81-0.01,2.69-0.02
							c32.94-0.62,79.17-11.37,104-17.14c4-0.93,7.36-1.71,9.92-2.27c10.46-2.3,46.3-8.56,68.65,7.52
							c10.49,7.54,16.62,18.99,18.24,34.03c2.62,24.44,0.88,44.48-5.2,59.56c-6.08,15.11-14.95,21.53-21.32,24.26
							C994.9,1254.09,991.55,1254.5,987.3,1254.5z M703.81,1134.82c-2.5,6.98-19.92,58.56,6.55,72.73
							c19.42,10.39,74.48,19.52,163.64,27.13c10.9,0.93,28.34,4.29,46.8,7.85c31.03,5.98,66.2,12.77,75.48,8.79
							c7.65-3.28,32.08-18.86,25.32-81.77c-1.55-14.45-7.41-25.42-17.42-32.62c-21.68-15.59-56.8-9.45-67.05-7.19
							c-2.56,0.56-5.91,1.34-9.9,2.27c-24.91,5.79-71.27,16.58-104.42,17.19C786.74,1149.88,712.51,1136.42,703.81,1134.82z"/>
					</g>
				</g>
			</g>
		</g>
	</g>
</g>
</svg>
